<svg width="519" height="208" fill="none" xmlns="http://www.w3.org/2000/svg"><path fill-rule="evenodd" clip-rule="evenodd" d="M382.833 65.519c3.343.023 6.371-.212 6.728-.531 1.407-1.253.213-2.281-1.983-1.708-1.277.34-3.791.576-5.591.528-1.796-.048-3.708.307-4.25.786-.606.539 1.36.893 5.096.925zM247.446 86.156c.084.473 1.692.587 3.576.254 1.884-.332 3.361-.99 3.278-1.462-.083-.47-1.696-.583-3.58-.251-1.884.332-3.357.989-3.274 1.46zm87.142-5.085c-.658.94.524 1.994 1.954 1.742.682-.12 1.133-.796 1.008-1.504-.228-1.293-2.117-1.442-2.962-.238zm90.044-23.911c4.94-1.452 7.118-2.822 5.488-3.468-.435-.168-3.829-.057-7.54.248-7.061.579-7.978 1.26-4.739 3.532 1.386.97 2.617.908 6.791-.313zm-97.007 25.456c.375.418 1.214.67 1.865.556.649-.115 1.353-.639 1.562-1.16.214-.542-.588-.782-1.865-.556-1.279.225-1.948.724-1.562 1.16zm-59.707-1.954c-.711.579-2.392.894-3.918.734-2.105-.223-3.142.197-4.873 1.957-3.377 3.425-1.347 3.753 7.521 1.214 4.362-1.257 8.876-2.45 10.029-2.667 1.5-.275 1.787-.597 1.008-1.142-1.691-1.19-8.353-1.253-9.767-.096zm95.152-14.894c.083.473 1.115.689 2.293.48 1.176-.207 2.072-.762 1.989-1.235-.083-.47-1.115-.685-2.291-.478-1.178.208-2.074.763-1.991 1.233zm47.217-.995c3.423-.323 7.768-.466 9.66-.315 7.161.582 16.915.735 20.891.33 2.274-.223 4.676-.126 5.339.223.663.344 1.924.75 2.8.902.876.145 1.705.902 1.84 1.67.182 1.03.616 1.151 1.626.456 2.627-1.82 6.703-1.856 12.863-.12 3.402.961 6.255 2.118 6.336 2.576.08.457.723.73 1.431.606a1.31 1.31 0 001.057-1.514c-.286-1.62.643-1.795 3.043-.563 1.063.543 1.42 1.058.818 1.18-.587.117-.956.837-.822 1.595.196 1.11-.354 1.376-2.784 1.351-4.483-.051-4.346 1.585.32 3.853 4.421 2.146 7.862 1.862 6.991-.58-.762-2.16 2.204-2.328 5.588-.322 3.463 2.054 5.113 1.918 4.706-.39-.166-.943-.687-1.643-1.157-1.56a.876.876 0 01-1.011-.714c-.151-.856.122-.808 5.615.894 1.122.346 3.222.756 4.668.903 2.186.233 2.654-.004 2.77-1.415.116-1.457.459-1.611 2.422-1.107 1.823.473 2.405.314 2.853-.786.81-1.97.242-4.388-1.092-4.652-.63-.128-1.462-1.615-1.856-3.318-.959-4.155-3.032-5.62-5.202-3.66-1.291 1.157-1.847 1.266-2.876.541-1.032-.718-1.076-1.07-.233-1.821 1.205-1.073.091-2.732-1.63-2.428-.638.112-1.228.653-1.31 1.198-.17 1.154-9.124.2-11.554-1.238-.834-.481-2.333-.508-3.335-.051-1.388.636-1.756.512-1.554-.533.32-1.645-4.728-2.058-9.708-.802-1.762.452-3.735.534-4.381.195-.649-.339-3.194-.78-5.656-.977-2.465-.197-4.907-.625-5.425-.947-.518-.324-2.067-.39-3.445-.146-2.127.375-2.31.604-1.21 1.537.711.602 2.007.97 2.881.817.876-.155 2.386.568 3.364 1.608 2.043 2.176 5.552 2.592 14.765 1.753 3.565-.322 6.74-.341 7.06-.038 1.147 1.11 5.801 1.81 8.646 1.308 1.6-.282 3.22-.16 3.605.27.383.432 1.326.566 2.091.298.918-.324 1.612.18 2.036 1.483 1.029 3.157-.256 3.866-4.724 2.602-2.446-.693-6.394-.903-9.757-.52-7.932.908-15.063.574-17.38-.808-1.254-.749-3.946-.964-7.393-.594-3.612.387-5.862.181-6.732-.609-.77-.695-3.104-1.043-5.661-.84-2.399.196-8.709.451-14.035.561-5.322.12-10.732.422-12.023.668-1.585.306-2.425.017-2.585-.89-.187-1.062-.814-1.13-2.93-.328-3.321 1.265-5.745 2.164-6.838 2.538-2.288.79 2.722 1.202 8.214.67z" fill="#FFCD00"/><path fill-rule="evenodd" clip-rule="evenodd" d="M447.695 61.148c.631.132 1.595-.038 2.142-.377.547-.345.03-.453-1.149-.245-1.176.207-1.622.486-.993.622zm-96.418-2.579c5.353-1.725 5.385-4.025.042-3.104-2.726.47-3.359.355-2.512-.46.814-.78-.31-.79-3.98-.042-3.166.649-5.6 1.64-6.384 2.607-.701.857-1.221 1.838-1.16 2.182.181 1.031 9.58.232 13.994-1.183zm11.045-1.226c3.71.908 6.254.755 8.367-.516 2.229-1.339.15-2.144-3.763-1.454-2.094.369-3.872.288-3.956-.188-.082-.468-1.117-.682-2.293-.475-3.101.547-2.422 1.63 1.645 2.633zm-29.557 1.847c-.418.377-.729.853-.692 1.06.037.21.449.31.919.227.473-.083.786-.56.698-1.058-.087-.497-.503-.605-.925-.23zm76.32-2.367c1.718-1.347 2.031-3.58.335-2.39-.541.377-1.642 1.054-2.442 1.504-.932.521-1.11 1.065-.494 1.494.617.43 1.557.213 2.601-.608zm-36.652 62.049c.083.468.922.723 1.865.556.941-.166 1.645-.692 1.562-1.16-.083-.47-.924-.722-1.865-.556-.943.167-1.645.69-1.562 1.16zm-26.941-.245c-.677.407-1.161 1.14-1.075 1.623.192 1.093 1.081.953 2.553-.389 1.388-1.257.209-2.246-1.478-1.234z" fill="#FFCD00"/><mask id="a" style="mask-type:alpha" maskUnits="userSpaceOnUse" x="0" y="0" width="517" height="201"><path fill-rule="evenodd" clip-rule="evenodd" d="M.702 88.108L496.414.701l19.882 112.756-495.713 87.407L.703 88.108z" fill="#fff"/></mask><g mask="url(#a)" fill-rule="evenodd" clip-rule="evenodd" fill="#FFCD00"><path d="M257.994 133.751c-1.817.32-2.773.849-2.368 1.302.375.419 1.815.565 3.201.321 1.385-.245 2.451-.832 2.368-1.303-.083-.47-1.523-.616-3.201-.32z"/><path d="M448.319 102.561c-.576.357-1.321.457-1.655.225-.335-.239.136-.528 1.044-.653 1.008-.13 1.245.036.611.428zm-8.729.939c-.471.083-1.162-.195-1.534-.614-.375-.419-.299-.832.172-.915.472-.083 1.166.194 1.541.613.373.419.294.833-.179.916zm-35.887 1.025c-2.137.377-3.507-.743-2.266-1.849.471-.413 1.585-.245 2.479.381 1.505 1.056 1.488 1.169-.213 1.468zm-14.058-17.01c-2.316.469-3.03.179-1.901-.764.315-.266 1.4-.31 2.41-.097 1.602.336 1.536.446-.509.86zm-7.236 1.536c-3.518.948-9.017.97-6.838.025 1.883-.817 10.649-2.17 10.738-1.664.058.31-1.699 1.046-3.9 1.64zm-49.292 33.191c-2.676.491-5.172.545-5.547.126-.375-.419-.372-.841.003-.936.374-.098 2.061-.566 3.74-1.051 1.803-.518 3.803-.498 4.867.05 1.625.83 1.314 1.016-3.063 1.811zm-34.056-5.37c-.69.985-7.15 2.236-26.741 5.181-2.132.32-4.718.28-5.755-.083-1.035-.372-5.171-.162-9.193.456-9.658 1.49-11.437 1.644-12.753 1.09-.607-.253-1.675-.118-2.375.296-.836.507-1.352.297-1.513-.613-.133-.757-.821-1.272-1.526-1.148-.706.124-1.364-.207-1.457-.737-.119-.672 1.118-1.002 4.007-1.077 4.021-.102 12.002-1.479 21.506-3.707 2.869-.671 5.602-.75 7.435-.208 1.595.473 6.031.485 9.853.024 3.827-.456 7.466-.549 8.096-.209 1.153.628 3.982.625 8.638-.01 1.831-.253 2.329-.043 1.778.745zm-82.363-27.407c-1.589 1.657-5.806 2.68-6.737 1.632-.332-.373-3.377-.233-6.766.314-3.39.542-6.367.843-6.617.666-.51-.358 3.743-2.456 5.104-2.518.481-.023 4.377-.388 8.659-.81 6.934-.679 7.622-.603 6.357.716zM154.84 100.6c-3.42.579-6.278.707-6.354.276-.076-.427.749-.935 1.832-1.126 1.083-.19 2.279-.793 2.659-1.332 1.013-1.447 15.387-5 15.589-3.852.283 1.605-7.302 4.938-13.726 6.034zm-9.515-2.628c-.942.856-.902 1.31.227 2.574 1.696 1.894.784 2.358-9.318 4.72-3.852.898-7.026 1.482-7.06 1.293-.104-.592 4.933-3.715 8.979-5.569 2.145-.986 4.045-2.16 4.225-2.608.181-.456 1.173-.966 2.208-1.14 1.519-.258 1.658-.115.739.73zM209.9 68.959c1.118-.176 1.109.004-.044.973-.773.653-1.595 1.05-1.832.885-.712-.5.427-1.626 1.876-1.858zm3.716-1.564c.804-.142 1.037-.996.669-2.46-.458-1.828-.108-2.46 1.881-3.42 3.194-1.531 4.968-1.159 4.79 1.02-.103 1.247.364 1.716 1.671 1.678 1-.028 2.035.358 2.301.854.639 1.193-2.207 2.462-7.745 3.452-2.474.447-4.562.424-4.646-.05-.083-.47.399-.954 1.079-1.074zm26.542-.04c1.883-.325 2.586-.265 1.557.127s-2.573.656-3.43.586c-.857-.07-.013-.39 1.873-.714zm10.668-.842l5.937-.133-4.344 1.568c-3.207 1.154-4.734 1.338-5.832.714-2.708-1.543-1.769-2.023 4.239-2.15zm10.777-1.325c2.337-.453 5.187-1.73 6.776-3.037 3.054-2.494 5.637-3.259 6.764-1.994.448.504 1.857.41 3.544-.223 2.837-1.068 3.694-.513 2.294 1.49-.552.788-.46 1.217.328 1.53.66.268 1.158-.31 1.251-1.446.123-1.506.819-2.002 3.479-2.47 3.716-.656 4.51.374 1.869 2.428-.961.742-1.914 1.745-2.121 2.218-.205.484-1.883 1.123-3.725 1.427-1.841.303-6.918 1.161-11.277 1.903-4.362.74-7.992 1.012-8.064.599-.073-.414-1.261-.956-2.637-1.201-2.316-.41-2.2-.505 1.519-1.224zm29.924-6.521c2.038-1.226 7.238-2.007 7.396-1.11.074.419-1.16 1.145-2.742 1.621h.006c-1.577.472-3.589.742-4.465.595-1.523-.246-1.532-.3-.195-1.106zm11.68 4.373c2.908-1.461 3.973-1.59 7.52-.905 6.021 1.156 6.108 2.07.298 3.095-2.801.494-6.466.583-8.147.205l-3.059-.694 3.388-1.7zM515.3 112.417c-.716-.119-2.303-.974-3.528-1.906-1.224-.925-2.763-1.616-3.42-1.532-.659.089-3.095-.459-5.413-1.215-2.322-.757-5.364-1.631-6.762-1.941-1.403-.31-2.524-1.045-2.497-1.633.027-.586-1.641-2.098-3.71-3.356-4.369-2.657-4.066-4.655.46-3.029 2.186.787 3.288.766 4.218-.077 1.895-1.71.734-2.55-3.067-2.225-1.874.162-4.042-.074-4.819-.518-2.042-1.17-3.521-1.122-11.608.331-3.99.72-7.703 1.076-8.249.788-.549-.286-3.511-.127-6.584.356-3.192.497-7.108.492-9.135-.017-3.237-.812-3.435-1.017-2.23-2.269 2.176-2.267.245-2.444-4.457-.397-6.507 2.824-13.213 2.226-13.988-1.259-.074-.347 3.795-1.226 8.601-1.956 5.97-.903 8.789-1.656 8.898-2.368.088-.573-.331-.899-.932-.737-3.558.995-13.42.845-14.526-.218-1.078-1.033-1.424-.999-2.474.24-1.447 1.707-14.855 4.69-17.805 3.962-1.596-.39-1.436-.511.905-.671 1.559-.107 2.778-.52 2.71-.904-.068-.388 1.45-1.812 3.37-3.166 4.236-2.985 5.683-5.098 3.749-5.471-.725-.141-2.305.33-3.505 1.05-2.986 1.776-8.667 2.684-9.315 1.488-.348-.642-2.646-.618-6.678.074-3.384.578-6.198.805-6.25.505-.146-.781-4.925-.728-15.001.162-4.821.423-9.378.42-10.124-.006-.748-.43-3.539-.62-6.198-.431-2.657.191-4.698.01-4.532-.406.566-1.43-1.938-1.638-8.791-.744-3.78.496-7.215.763-7.634.592-.424-.165-6.139.4-12.71 1.263-14.895 1.955-18.918 2.033-19.209.384-.164-.93.841-1.456 3.823-1.998 5.254-.961 7.346-3.406 2.357-2.76-12.182 1.58-13.415 1.869-12.756 2.963.491.819-.162 1.214-2.545 1.557-3.189.458-9.378.294-7.684-.204.49-.142 1.536-.964 2.328-1.82 1.303-1.41.662-1.417-6.687-.082-4.471.818-8.736 1.426-9.477 1.354-5.907-.56-8.129-.253-8.88 1.23-.679 1.335-1.853 1.625-8.632 2.114-4.316.319-10.23.589-13.141.609-2.91.015-9.353.671-14.315 1.453-8.848 1.398-12.614 1.126-15.839-1.132-1.921-1.343-.684-1.988 5.506-2.869 5.751-.814 10.372-3.092 10.804-5.326.348-1.788-3.536-1.026-4.934.971-.855 1.227-2.277 1.627-6.997 1.985-3.255.246-7.842.834-10.183 1.31-3.723.75-4.101.679-2.968-.544.712-.779 1.261-1.614 1.217-1.862-.043-.245-3.31.33-7.262 1.28-6.797 1.636-7.29 1.64-9.27-.009-1.882-1.56-2.178-1.577-2.926-.182-.648 1.22-2.229 1.763-7.284 2.5-9.386 1.359-13.28 1.158-13.131-.688.099-1.21-.478-1.38-2.955-.876-1.691.34-3.42.915-3.839 1.277-.421.362-1.933 1.137-3.363 1.717-2.875 1.165-4.9.078-2.179-1.172 2.295-1.055 1.08-2.202-2.417-2.284-1.734-.038-2.583-.424-2.175-.986.371-.521 2.283-.906 4.374-.886 2.345.021 3.984-.358 4.454-1.03.525-.745 1.627-.916 3.704-.563 3.378.57 18.114-1.805 26.833-4.326 5.736-1.656 9.517-1.654 11.264.013.509.488 1.002.26 1.379-.627.509-1.22 2.085-1.471 12.542-2.044 12.134-.658 13.978-.493 12.193 1.098-.723.647-.421.938 1.096 1.065 1.149.093 2.153-.228 2.232-.719.076-.493.52-.74.99-.55 1.871.741 19.182-2.018 20.21-3.23.81-.956 1.077-.92 1.271.178.135.765.578 1.331.989 1.259.409-.072 4.242-.138 8.516-.143 4.275-.01 10.733-.608 14.353-1.326 3.621-.713 6.95-1.159 7.398-.99.451.17 7.696-.003 16.104-.388 11.559-.533 15.829-1.03 17.525-2.032 1.654-.985 2.29-1.07 2.419-.339.424 2.364 19.969 1.497 21.691-.963.724-1.033-1.308-2.042-3.386-1.676-1.233.218-3.49.245-5.012.063-9.001-1.085-11.383-1.113-16.839-.167-5.438.943-6.086.876-6.598-.68-.888-2.709 2.78-4.834 6.46-3.743 2.582.765 3.038.68 4.718-.899 1.162-1.092 2.8-1.727 4.379-1.691 1.383.033 2.673-.333 2.865-.812.501-1.253-2.318-1.933-7.367-1.781-2.418.074-4.75-.007-5.185-.176-1.63-.645-8.817.625-10.649 1.886-1.571 1.08-2.102 1.074-2.986-.01-.76-.926-1.67-1.053-3.081-.423-1.222.548-2.068.527-2.17-.054-.092-.52-1.439-.725-2.995-.45-1.553.273-3.266.189-3.803-.185-.538-.377-5.631-.076-11.32.666-5.685.747-12.72 1.382-15.627 1.412-7.45.08-12.009 1.02-13.687 2.824-2.177 2.34-6.14 2.81-7.049.827-.746-1.619-2.747-1.916-3.316-.489-.162.41-1.395.886-2.736 1.061-1.341.175-3.893.513-5.672.75-2.165.293-3.306.031-3.45-.786-.172-.971-1.229-.955-5.066.075l-4.847 1.303 1.757-2.02c1.82-2.102 1.164-4.238-.913-2.987-.65.392-1.852.33-2.668-.137-.813-.459-1.663-.592-1.877-.282-.217.31-1.674.271-3.236-.08-1.912-.432-3.642-.255-5.301.554-1.663.816-2.716.921-3.237.336-.528-.591-1.767-.453-3.939.45-1.741.722-7.692 2.14-13.22 3.144-9.909 1.808-10.061 1.806-10.4-.117-.401-2.274-2.566-2.252-3.365.034-.69 1.981-2.897 1.174-2.72-.997.152-1.884-1.043-2.06-9.336-1.365-6.946.58-26.423 3.918-32.147 5.506-2.313.647-7.629 2.054-11.809 3.132-4.545 1.17-8.079 2.544-8.781 3.41-.782.965-4.121 2.11-9.959 3.414-4.828 1.075-9.092 2.403-9.481 2.96-.383.55-2.164 1.255-3.952 1.57-2.324.41-3.191.947-3.03 1.864.228 1.292-.589 1.764-3.404 1.97-.84.06-1.441.593-1.337 1.184.109.615-.42.49-1.235-.294-1.36-1.303-1.733-1.245-8.381 1.294-3.83 1.462-7.55 2.685-8.271 2.725-1.846.096-7.081 2.231-12.7 5.186-2.63 1.378-5.798 2.693-7.038 2.912-1.24.219-2.638.94-3.101 1.605-.47.666-.904.89-.972.501-.068-.384-.682-.055-1.367.73-.844.971-1.096 1.053-.788.245.319-.821-.21-1.067-1.737-.797-1.31.23-2.106.87-1.98 1.585.34 1.926-3.94 3.901-6.123 2.831-2.818-1.387-4.106-.755-3.656 1.798l.406 2.303L23 105.589c-2.716-2.044-4.305-1.687-5.57 1.267-.569 1.321-1.909 2.791-2.978 3.27-2.223.994-2.236 2.646-.035 4.187.831.587 1.612 1.643 1.736 2.348.125.709 1.073 1.402 2.102 1.54 1.035.14 1.737.451 1.566.702-.407.578-5.15-.643-5.276-1.358-.095-.541-5.48.723-7.422 1.748-1.162.607-.972 2.892.28 3.388.465.187 1.297 1.354 1.855 2.599.551 1.24 2.108 3.282 3.457 4.528 1.35 1.246 2.748 3.145 3.105 4.22.632 1.903 1.837 2.631 5.035 3.029 1.211.157 1.744 1.139 2.291 4.241.902 5.117 4.975 14.402 7.048 16.062.869.697 2.704 1.069 4.074.827 2.935-.518 6.045.344 6.29 1.737.096.54-.476 1.981-1.274 3.196l-1.45 2.219 2.614 3.145c1.444 1.733 3.2 3.062 3.911 2.958 2.23-.334 4.953 1.549 4.634 3.204-.398 2.05 1.603 3.621 4.056 3.189 1.093-.193 2.274-.023 2.632.375.702.788 5.421-.449 9.307-2.44 1.34-.684 4.61-1.834 7.27-2.564 4.904-1.344 7.667-3.265 10.733-7.456.936-1.279 2.129-2.406 2.65-2.498.527-.096 2.003-.993 3.284-1.994 1.428-1.121 5.12-2.443 9.552-3.422 3.975-.879 10.044-2.501 13.494-3.6 3.449-1.098 12.671-3.745 20.491-5.881 13.294-3.628 14.34-3.804 16.086-2.711 1.7 1.07 2.958.894 14.204-1.993 6.783-1.745 12.717-3.59 13.181-4.104 1.489-1.648 4.813-2.727 6.117-1.984.731.414 2.584.25 4.392-.391 1.72-.61 5.715-1.938 8.874-2.943 3.156-1.009 5.903-2.066 6.103-2.352.201-.286 1.279.299 2.396 1.301 2.272 2.03 6.018 1.833 8.697-.457 1.296-1.113 1.738-1.191 2.202-.388.316.55 1.122.906 1.789.788.667-.117 1.031-.68.809-1.246-.3-.778 1.544-1.338 7.331-2.249 7.53-1.184 9.944-1.367 20.911-1.614 14.713-.324 18.133-.666 20.084-2.007 1.561-1.08 2.164-1.135 2.918-.29.794.894 1.261.822 2.848-.428 1.075-.84 2.755-1.373 3.878-1.219 1.819.239 1.874.368.708 1.583-1.099 1.145-.551 1.347 3.948 1.446 2.869.067 10.936-.105 17.931-.377 6.998-.274 15.289-.556 18.435-.62 3.145-.072 11.411-.509 18.374-.98 6.959-.473 13.256-.763 13.986-.644.734.113 4.304.078 7.933-.09 3.63-.161 9.559-.42 13.175-.57a861.68 861.68 0 0013.566-.684c6.56-.392 12.401-.516 22.878-.474 2.43.014 7.343-.295 10.916-.691 9.007-.98 4.837-1.567-9.506-1.332-6.295.1-17.2.232-24.235.292-11.136.09-38.308.999-40.27 1.345-.382.067-1.298-.757-2.036-1.831-1.147-1.669-1.119-2.132.195-3.158.844-.668 2.678-1.493 4.072-1.842 1.662-.413 2.326-.983 1.925-1.654-.788-1.31 8.459-2.411 11.612-1.381 1.437.471 6.725-.093 15.968-1.704 7.597-1.329 14.577-2.171 15.51-1.88.934.291 3.53.369 5.77.166 5.298-.465 13.779-.468 22.684-.003 3.925.209 8.964.226 11.202.042 2.235-.183 4.473-.173 4.976.034.503.197 4.818.273 9.589.159 10.037-.23 15.219-.118 20.266.429 4.008.439 9.951.635 14.727.489 1.725-.054 4.053.498 5.168 1.218 1.28.837 3.261 1.101 5.361.72 5.05-.907 9.17-.887 13.196.047 5.811 1.358 12.355 1.973 12.845 1.216.249-.388-.132-.798-.85-.922z"/></g><path fill-rule="evenodd" clip-rule="evenodd" d="M432.966 121.611c-.783-.315-3.012-.551-4.949-.521-2.319.028-3.033.241-2.099.612.783.315 3.01.554 4.95.524 2.319-.031 3.035-.245 2.098-.615zm57.3-31.827c-3.041 1.021-3.447 1.394-2.339 2.145.74.498 3.087.732 5.22.516 3.025-.315 3.883-.711 3.913-1.841.052-1.987-2.422-2.28-6.794-.82zm-27.413 34.042c-1.872.131-2.603.275-1.621.326.979.051 2.212.38 2.735.73.525.35 1.933.462 3.131.229 3.265-.616.058-1.588-4.245-1.285zm42.151-20.732c.337.234 1.076.133 1.653-.222.637-.395.396-.566-.608-.426-.908.12-1.379.411-1.045.648zM480.4 124.306c-3.357.171-3.587.288-2.013 1.101.972.494 3.103.686 4.731.413 4.01-.67 2.063-1.752-2.718-1.514zm9.162-6.657c-.413.072-.616.9-.45 1.843.29 1.646 2.084 2.025 3.051.648.534-.761-1.479-2.689-2.601-2.491zm-17.403-1.345c-1.15.203-2.024.746-1.943 1.206.167.949 4.495 1.465 5.096.61.77-1.103-1.101-2.177-3.153-1.816zm-23.567 6.013c-2.216-.023-3.977.253-3.913.615.162.92 1.973 1.168 6.898.945 5.425-.243 3.024-1.495-2.985-1.56zm-5.764.121c-.779-.273-2.329-.62-3.445-.752-1.117-.141-1.967.118-1.889.563.148.837 3.19 1.359 5.464.926 1.138-.212 1.123-.297-.13-.737zm67.338-23.892c-.957.857.282 2.791 2.003 3.125 1.544.306 2.846-.561 2.638-1.742-.192-1.09-3.777-2.153-4.641-1.383z" fill="#FFCD00"/></svg>